<svg width="18" height="14" viewBox="0 0 18 14" fill="none" xmlns="http://www.w3.org/2000/svg">
<mask id="path-1-inside-1_669_2" fill="white">
<path d="M5.59 10.58L1.42 6.41L0 7.82L5.59 13.41L17.59 1.41L16.18 0L5.59 10.58Z"/>
</mask>
<path d="M5.59 10.58L1.42 6.41L0 7.82L5.59 13.41L17.59 1.41L16.18 0L5.59 10.58Z" fill="white"/>
<path d="M5.59 10.58L-1.48107 17.6511L5.58666 24.7188L12.6577 17.6544L5.59 10.58ZM1.42 6.41L8.49107 -0.661068L1.44494 -7.70719L-5.62604 -0.68601L1.42 6.41ZM0 7.82L-7.04604 0.72399L-14.1672 7.79497L-7.07107 14.8911L0 7.82ZM5.59 13.41L-1.48107 20.4811L5.59 27.5521L12.6611 20.4811L5.59 13.41ZM17.59 1.41L24.6611 8.48107L31.7321 1.41L24.6611 -5.66107L17.59 1.41ZM16.18 0L23.2511 -7.07107L16.1833 -14.1388L9.11227 -7.07441L16.18 0ZM12.6611 3.50893L8.49107 -0.661068L-5.65107 13.4811L-1.48107 17.6511L12.6611 3.50893ZM-5.62604 -0.68601L-7.04604 0.72399L7.04604 14.916L8.46604 13.506L-5.62604 -0.68601ZM-7.07107 14.8911L-1.48107 20.4811L12.6611 6.33893L7.07107 0.748932L-7.07107 14.8911ZM12.6611 20.4811L24.6611 8.48107L10.5189 -5.66107L-1.48107 6.33893L12.6611 20.4811ZM24.6611 -5.66107L23.2511 -7.07107L9.10893 7.07107L10.5189 8.48107L24.6611 -5.66107ZM9.11227 -7.07441L-1.47773 3.50559L12.6577 17.6544L23.2477 7.07441L9.11227 -7.07441Z" fill="#FBFBFB" mask="url(#path-1-inside-1_669_2)"/>
</svg>
